<svg width="24" height="24" viewBox="0 0 24 24" fill="none" xmlns="http://www.w3.org/2000/svg">
<path fill-rule="evenodd" clip-rule="evenodd" d="M12.5304 2.46888C12.6002 2.53854 12.6556 2.62131 12.6935 2.71243C12.7313 2.80354 12.7507 2.90122 12.7507 2.99988C12.7507 3.09853 12.7313 3.19621 12.6935 3.28733C12.6556 3.37844 12.6002 3.46121 12.5304 3.53088L4.05989 11.9999L12.5304 20.4689C12.6712 20.6097 12.7503 20.8007 12.7503 20.9999C12.7503 21.199 12.6712 21.39 12.5304 21.5309C12.3896 21.6717 12.1986 21.7508 11.9994 21.7508C11.8002 21.7508 11.6092 21.6717 11.4684 21.5309L2.46839 12.5309C2.39854 12.4612 2.34313 12.3784 2.30532 12.2873C2.26751 12.1962 2.24805 12.0985 2.24805 11.9999C2.24805 11.9012 2.26751 11.8035 2.30532 11.7124C2.34313 11.6213 2.39854 11.5385 2.46839 11.4689L11.4684 2.46888C11.5381 2.39903 11.6208 2.34362 11.7119 2.30581C11.8031 2.268 11.9007 2.24854 11.9994 2.24854C12.098 2.24854 12.1957 2.268 12.2868 2.30581C12.378 2.34362 12.4607 2.39903 12.5304 2.46888Z" fill="#444444"/>
<path fill-rule="evenodd" clip-rule="evenodd" d="M18.5304 2.46888C18.6002 2.53854 18.6556 2.62131 18.6935 2.71243C18.7313 2.80354 18.7507 2.90122 18.7507 2.99988C18.7507 3.09853 18.7313 3.19621 18.6935 3.28733C18.6556 3.37844 18.6002 3.46121 18.5304 3.53088L10.0599 11.9999L18.5304 20.4689C18.6001 20.5386 18.6554 20.6214 18.6932 20.7125C18.7309 20.8036 18.7503 20.9013 18.7503 20.9999C18.7503 21.0985 18.7309 21.1961 18.6932 21.2873C18.6554 21.3784 18.6001 21.4611 18.5304 21.5309C18.4607 21.6006 18.3779 21.6559 18.2868 21.6937C18.1957 21.7314 18.098 21.7508 17.9994 21.7508C17.9008 21.7508 17.8031 21.7314 17.712 21.6937C17.6209 21.6559 17.5381 21.6006 17.4684 21.5309L8.46839 12.5309C8.39854 12.4612 8.34313 12.3784 8.30532 12.2873C8.26751 12.1962 8.24805 12.0985 8.24805 11.9999C8.24805 11.9012 8.26751 11.8035 8.30532 11.7124C8.34313 11.6213 8.39854 11.5385 8.46839 11.4689L17.4684 2.46888C17.5381 2.39903 17.6208 2.34362 17.7119 2.30581C17.8031 2.268 17.9007 2.24854 17.9994 2.24854C18.098 2.24854 18.1957 2.268 18.2868 2.30581C18.378 2.34362 18.4607 2.39903 18.5304 2.46888Z" fill="#444444"/>
</svg>
