<svg width="24" height="24" viewBox="0 0 24 24" fill="none" xmlns="http://www.w3.org/2000/svg">
<path fill-rule="evenodd" clip-rule="evenodd" d="M5.46839 2.46888C5.53806 2.39903 5.62082 2.34362 5.71194 2.30581C5.80305 2.268 5.90074 2.24854 5.99939 2.24854C6.09804 2.24854 6.19572 2.268 6.28684 2.30581C6.37796 2.34362 6.46072 2.39903 6.53039 2.46888L15.5304 11.4689C15.6002 11.5385 15.6556 11.6213 15.6935 11.7124C15.7313 11.8035 15.7507 11.9012 15.7507 11.9999C15.7507 12.0985 15.7313 12.1962 15.6935 12.2873C15.6556 12.3784 15.6002 12.4612 15.5304 12.5309L6.53039 21.5309C6.38956 21.6717 6.19855 21.7508 5.99939 21.7508C5.80022 21.7508 5.60922 21.6717 5.46839 21.5309C5.32756 21.39 5.24844 21.199 5.24844 20.9999C5.24844 20.8007 5.32756 20.6097 5.46839 20.4689L13.9389 11.9999L5.46839 3.53088C5.39854 3.46121 5.34313 3.37844 5.30532 3.28733C5.26751 3.19621 5.24805 3.09853 5.24805 2.99988C5.24805 2.90122 5.26751 2.80354 5.30532 2.71243C5.34313 2.62131 5.39854 2.53854 5.46839 2.46888Z" fill="#444444"/>
<path fill-rule="evenodd" clip-rule="evenodd" d="M11.4684 2.46888C11.5381 2.39903 11.6208 2.34362 11.7119 2.30581C11.8031 2.268 11.9007 2.24854 11.9994 2.24854C12.098 2.24854 12.1957 2.268 12.2868 2.30581C12.378 2.34362 12.4607 2.39903 12.5304 2.46888L21.5304 11.4689C21.6002 11.5385 21.6556 11.6213 21.6935 11.7124C21.7313 11.8035 21.7507 11.9012 21.7507 11.9999C21.7507 12.0985 21.7313 12.1962 21.6935 12.2873C21.6556 12.3784 21.6002 12.4612 21.5304 12.5309L12.5304 21.5309C12.3896 21.6717 12.1986 21.7508 11.9994 21.7508C11.8002 21.7508 11.6092 21.6717 11.4684 21.5309C11.3276 21.39 11.2484 21.199 11.2484 20.9999C11.2484 20.8007 11.3276 20.6097 11.4684 20.4689L19.9389 11.9999L11.4684 3.53088C11.3985 3.46121 11.3431 3.37844 11.3053 3.28733C11.2675 3.19621 11.248 3.09853 11.248 2.99988C11.248 2.90122 11.2675 2.80354 11.3053 2.71243C11.3431 2.62131 11.3985 2.53854 11.4684 2.46888Z" fill="#444444"/>
</svg>
