<svg width="16" height="16" viewBox="0 0 16 16" fill="none" xmlns="http://www.w3.org/2000/svg">
<path d="M2.14565 2.85401C2.09917 2.80752 2.06229 2.75233 2.03713 2.69159C2.01197 2.63085 1.99902 2.56575 1.99902 2.50001C1.99902 2.43426 2.01197 2.36916 2.03713 2.30842C2.06229 2.24768 2.09917 2.19249 2.14565 2.14601C2.19214 2.09952 2.24733 2.06264 2.30807 2.03748C2.36881 2.01232 2.43391 1.99937 2.49966 1.99937C2.5654 1.99937 2.6305 2.01232 2.69124 2.03748C2.75198 2.06264 2.80717 2.09952 2.85366 2.14601L7.99965 7.29301L13.1457 2.14601C13.1921 2.09952 13.2473 2.06264 13.3081 2.03748C13.3688 2.01232 13.4339 1.99937 13.4997 1.99937C13.5654 1.99937 13.6305 2.01232 13.6912 2.03748C13.752 2.06264 13.8072 2.09952 13.8537 2.14601C13.9001 2.19249 13.937 2.24768 13.9622 2.30842C13.9873 2.36916 14.0003 2.43426 14.0003 2.50001C14.0003 2.56575 13.9873 2.63085 13.9622 2.69159C13.937 2.75233 13.9001 2.80752 13.8537 2.85401L8.70665 8.00001L13.8537 13.146C13.9001 13.1925 13.937 13.2477 13.9622 13.3084C13.9873 13.3692 14.0003 13.4343 14.0003 13.5C14.0003 13.5657 13.9873 13.6308 13.9622 13.6916C13.937 13.7523 13.9001 13.8075 13.8537 13.854C13.8072 13.9005 13.752 13.9374 13.6912 13.9625C13.6305 13.9877 13.5654 14.0006 13.4997 14.0006C13.4339 14.0006 13.3688 13.9877 13.3081 13.9625C13.2473 13.9374 13.1921 13.9005 13.1457 13.854L7.99965 8.70701L2.85366 13.854C2.80717 13.9005 2.75198 13.9374 2.69124 13.9625C2.6305 13.9877 2.5654 14.0006 2.49966 14.0006C2.43391 14.0006 2.36881 13.9877 2.30807 13.9625C2.24733 13.9374 2.19214 13.9005 2.14565 13.854C2.09917 13.8075 2.06229 13.7523 2.03713 13.6916C2.01197 13.6308 1.99902 13.5657 1.99902 13.5C1.99902 13.4343 2.01197 13.3692 2.03713 13.3084C2.06229 13.2477 2.09917 13.1925 2.14565 13.146L7.29265 8.00001L2.14565 2.85401Z" fill="#444444"/>
</svg>
