<svg width="24" height="24" viewBox="0 0 24 24" fill="none" xmlns="http://www.w3.org/2000/svg">
<g clip-path="url(#clip0_3047_31732)">
<path fill-rule="evenodd" clip-rule="evenodd" d="M6.609 2.013C8.10822 0.720203 10.0204 0.00620777 12 0C16.035 0 19.3845 3 19.749 6.8685C22.137 7.206 24 9.2055 24 11.6595C24 14.3535 21.753 16.5 19.0305 16.5H15C14.8011 16.5 14.6103 16.421 14.4697 16.2803C14.329 16.1397 14.25 15.9489 14.25 15.75C14.25 15.5511 14.329 15.3603 14.4697 15.2197C14.6103 15.079 14.8011 15 15 15H19.032C20.9685 15 22.5 13.482 22.5 11.6595C22.5 9.8355 20.97 8.3175 19.0305 8.3175H18.2805V7.5675C18.282 4.2375 15.492 1.5 12 1.5C10.3798 1.50647 8.81526 2.09165 7.5885 3.15C6.453 4.128 5.859 5.307 5.859 6.2325V6.9045L5.1915 6.978C3.096 7.2075 1.5 8.928 1.5 10.977C1.5 13.1775 3.345 15 5.6715 15H9C9.19891 15 9.38968 15.079 9.53033 15.2197C9.67098 15.3603 9.75 15.5511 9.75 15.75C9.75 15.9489 9.67098 16.1397 9.53033 16.2803C9.38968 16.421 9.19891 16.5 9 16.5H5.6715C2.562 16.5 0 14.049 0 10.977C0 8.3325 1.899 6.1425 4.413 5.5875C4.6275 4.293 5.46 3.003 6.609 2.013V2.013Z" fill="#444444"/>
<path fill-rule="evenodd" clip-rule="evenodd" d="M11.468 23.781C11.5377 23.8508 11.6204 23.9063 11.7115 23.9441C11.8027 23.9819 11.9003 24.0013 11.999 24.0013C12.0976 24.0013 12.1953 23.9819 12.2864 23.9441C12.3776 23.9063 12.4603 23.8508 12.53 23.781L17.03 19.281C17.1708 19.1402 17.2499 18.9492 17.2499 18.75C17.2499 18.5508 17.1708 18.3598 17.03 18.219C16.8892 18.0782 16.6982 17.9991 16.499 17.9991C16.2998 17.9991 16.1088 18.0782 15.968 18.219L12.749 21.4395V8.25C12.749 8.05109 12.67 7.86032 12.5293 7.71967C12.3887 7.57902 12.1979 7.5 11.999 7.5C11.8001 7.5 11.6093 7.57902 11.4687 7.71967C11.328 7.86032 11.249 8.05109 11.249 8.25V21.4395L8.02999 18.219C7.88916 18.0782 7.69816 17.9991 7.49899 17.9991C7.29983 17.9991 7.10882 18.0782 6.96799 18.219C6.82716 18.3598 6.74805 18.5508 6.74805 18.75C6.74805 18.9492 6.82716 19.1402 6.96799 19.281L11.468 23.781Z" fill="#444444"/>
</g>
<defs>
<clipPath id="clip0_3047_31732">
<rect width="24" height="24" fill="white"/>
</clipPath>
</defs>
</svg>
