<svg width="36" height="36" viewBox="0 0 36 36" fill="none" xmlns="http://www.w3.org/2000/svg">
<path d="M30.6004 10.8H5.40039V26.1C5.40039 27.2935 5.8745 28.4381 6.71841 29.282C7.56232 30.1259 8.70692 30.6 9.90039 30.6H26.1004C27.2939 30.6 28.4385 30.1259 29.2824 29.282C30.1263 28.4381 30.6004 27.2935 30.6004 26.1V10.8Z" fill="url(#paint0_linear_2473_7931)"/>
<path d="M30.6004 10.8H5.40039V26.1C5.40039 27.2935 5.8745 28.4381 6.71841 29.282C7.56232 30.1259 8.70692 30.6 9.90039 30.6H26.1004C27.2939 30.6 28.4385 30.1259 29.2824 29.282C30.1263 28.4381 30.6004 27.2935 30.6004 26.1V10.8Z" fill="url(#paint1_linear_2473_7931)"/>
<g filter="url(#filter0_d_2473_7931)">
<path d="M14.4008 18C14.4008 18.4774 14.2111 18.9352 13.8736 19.2728C13.536 19.6104 13.0782 19.8 12.6008 19.8C12.1234 19.8 11.6656 19.6104 11.328 19.2728C10.9904 18.9352 10.8008 18.4774 10.8008 18C10.8008 17.5226 10.9904 17.0648 11.328 16.7272C11.6656 16.3896 12.1234 16.2 12.6008 16.2C13.0782 16.2 13.536 16.3896 13.8736 16.7272C14.2111 17.0648 14.4008 17.5226 14.4008 18Z" fill="url(#paint2_linear_2473_7931)"/>
<path d="M14.4008 23.4C14.4008 23.8774 14.2111 24.3352 13.8736 24.6728C13.536 25.0103 13.0782 25.2 12.6008 25.2C12.1234 25.2 11.6656 25.0103 11.328 24.6728C10.9904 24.3352 10.8008 23.8774 10.8008 23.4C10.8008 22.9226 10.9904 22.4648 11.328 22.1272C11.6656 21.7896 12.1234 21.6 12.6008 21.6C13.0782 21.6 13.536 21.7896 13.8736 22.1272C14.2111 22.4648 14.4008 22.9226 14.4008 23.4Z" fill="url(#paint3_linear_2473_7931)"/>
<path d="M19.8012 23.4C19.8012 23.8774 19.6115 24.3352 19.274 24.6728C18.9364 25.0103 18.4786 25.2 18.0012 25.2C17.5238 25.2 17.0659 25.0103 16.7284 24.6728C16.3908 24.3352 16.2012 23.8774 16.2012 23.4C16.2012 22.9226 16.3908 22.4648 16.7284 22.1272C17.0659 21.7896 17.5238 21.6 18.0012 21.6C18.4786 21.6 18.9364 21.7896 19.274 22.1272C19.6115 22.4648 19.8012 22.9226 19.8012 23.4Z" fill="url(#paint4_linear_2473_7931)"/>
<path d="M18.0012 19.8C18.4786 19.8 18.9364 19.6104 19.274 19.2728C19.6115 18.9352 19.8012 18.4774 19.8012 18C19.8012 17.5226 19.6115 17.0648 19.274 16.7272C18.9364 16.3896 18.4786 16.2 18.0012 16.2C17.5238 16.2 17.0659 16.3896 16.7284 16.7272C16.3908 17.0648 16.2012 17.5226 16.2012 18C16.2012 18.4774 16.3908 18.9352 16.7284 19.2728C17.0659 19.6104 17.5238 19.8 18.0012 19.8Z" fill="url(#paint5_linear_2473_7931)"/>
<path d="M25.2016 18C25.2016 18.4774 25.0119 18.9352 24.6744 19.2728C24.3368 19.6104 23.879 19.8 23.4016 19.8C22.9242 19.8 22.4663 19.6104 22.1288 19.2728C21.7912 18.9352 21.6016 18.4774 21.6016 18C21.6016 17.5226 21.7912 17.0648 22.1288 16.7272C22.4663 16.3896 22.9242 16.2 23.4016 16.2C23.879 16.2 24.3368 16.3896 24.6744 16.7272C25.0119 17.0648 25.2016 17.5226 25.2016 18Z" fill="url(#paint6_linear_2473_7931)"/>
</g>
<path d="M30.6004 9.89999C30.6004 8.70652 30.1263 7.56193 29.2824 6.71801C28.4385 5.8741 27.2939 5.39999 26.1004 5.39999H9.90039C8.70692 5.39999 7.56232 5.8741 6.71841 6.71801C5.8745 7.56193 5.40039 8.70652 5.40039 9.89999V12.6H30.6004V9.89999Z" fill="url(#paint7_linear_2473_7931)"/>
<defs>
<filter id="filter0_d_2473_7931" x="9.19998" y="15.3996" width="17.602" height="12.2016" filterUnits="userSpaceOnUse" color-interpolation-filters="sRGB">
<feFlood flood-opacity="0" result="BackgroundImageFix"/>
<feColorMatrix in="SourceAlpha" type="matrix" values="0 0 0 0 0 0 0 0 0 0 0 0 0 0 0 0 0 0 127 0" result="hardAlpha"/>
<feOffset dy="0.8004"/>
<feGaussianBlur stdDeviation="0.8004"/>
<feColorMatrix type="matrix" values="0 0 0 0 0.1242 0 0 0 0 0.323337 0 0 0 0 0.7958 0 0 0 0.32 0"/>
<feBlend mode="normal" in2="BackgroundImageFix" result="effect1_dropShadow_2473_7931"/>
<feBlend mode="normal" in="SourceGraphic" in2="effect1_dropShadow_2473_7931" result="shape"/>
</filter>
<linearGradient id="paint0_linear_2473_7931" x1="22.5508" y1="33.0318" x2="15.2986" y2="11.808" gradientUnits="userSpaceOnUse">
<stop stop-color="#B3E0FF"/>
<stop offset="1" stop-color="#B3E0FF"/>
</linearGradient>
<linearGradient id="paint1_linear_2473_7931" x1="20.7004" y1="18.9" x2="24.3004" y2="35.1" gradientUnits="userSpaceOnUse">
<stop stop-color="#DCF8FF" stop-opacity="0"/>
<stop offset="1" stop-color="#FF6CE8" stop-opacity="0.7"/>
</linearGradient>
<linearGradient id="paint2_linear_2473_7931" x1="16.6922" y1="15.1614" x2="19.6442" y2="33.1056" gradientUnits="userSpaceOnUse">
<stop stop-color="#0078D4"/>
<stop offset="1" stop-color="#0067BF"/>
</linearGradient>
<linearGradient id="paint3_linear_2473_7931" x1="16.6922" y1="15.1614" x2="19.6442" y2="33.1056" gradientUnits="userSpaceOnUse">
<stop stop-color="#0078D4"/>
<stop offset="1" stop-color="#0067BF"/>
</linearGradient>
<linearGradient id="paint4_linear_2473_7931" x1="16.6926" y1="15.1614" x2="19.6446" y2="33.1056" gradientUnits="userSpaceOnUse">
<stop stop-color="#0078D4"/>
<stop offset="1" stop-color="#0067BF"/>
</linearGradient>
<linearGradient id="paint5_linear_2473_7931" x1="16.6926" y1="15.1614" x2="19.6446" y2="33.1056" gradientUnits="userSpaceOnUse">
<stop stop-color="#0078D4"/>
<stop offset="1" stop-color="#0067BF"/>
</linearGradient>
<linearGradient id="paint6_linear_2473_7931" x1="16.693" y1="15.1614" x2="19.645" y2="33.1056" gradientUnits="userSpaceOnUse">
<stop stop-color="#0078D4"/>
<stop offset="1" stop-color="#0067BF"/>
</linearGradient>
<linearGradient id="paint7_linear_2473_7931" x1="5.40039" y1="5.39999" x2="27.0328" y2="-1.38961" gradientUnits="userSpaceOnUse">
<stop stop-color="#0094F0"/>
<stop offset="1" stop-color="#2764E7"/>
</linearGradient>
</defs>
</svg>
