<svg width="31" height="7" viewBox="0 0 31 7" fill="none" xmlns="http://www.w3.org/2000/svg">
<g clip-path="url(#clip0_2438_5286)">
<path d="M6.5068 6.86275H0.989753C0.628424 6.86275 0.275874 6.67112 0.108408 6.34888C-0.0853943 5.97441 -0.0149812 5.53024 0.284653 5.24282L4.12728 1.44571H1.3687C0.610745 1.44571 0.00263722 0.836051 0.00263722 0.0957265H5.08788C5.44921 0.0957265 5.8017 0.287359 5.96916 0.609598C6.16309 0.984068 6.09255 1.42824 5.79292 1.7156L1.95035 5.51283H5.13196C5.88985 5.51283 6.5068 6.12249 6.5068 6.86275ZM28.3458 0C27.5527 0 26.8476 0.33965 26.354 0.879607C25.8605 0.33965 25.1554 0 24.3623 0C22.8993 0 21.7007 1.23667 21.7007 2.68238V6.86275C22.4586 6.86275 23.0667 6.25309 23.0667 5.51283V2.6737C23.0667 1.97693 23.6131 1.38474 24.3182 1.35866C25.0585 1.33251 25.6666 1.91597 25.6666 2.63882V5.51283C25.6666 6.26183 26.2836 6.86275 27.0327 6.86275V2.66497C27.0327 1.96826 27.5791 1.37601 28.2841 1.34992C29.0245 1.32378 29.6326 1.90729 29.6326 2.63015V5.50409C29.6326 6.25315 30.2495 6.85402 30.9986 6.85402V2.67376C31.0074 1.23667 29.8088 0 28.3458 0ZM13.4163 3.48361C13.4163 5.40831 11.8388 6.96721 9.89104 6.96721C7.94333 6.96721 6.36579 5.40831 6.36579 3.48361C6.36579 1.55891 7.94333 0 9.89104 0C11.8388 0 13.4163 1.55891 13.4163 3.48361ZM12.0502 3.48361C12.0502 2.30791 11.0808 1.34992 9.89104 1.34992C8.70129 1.34992 7.73179 2.30791 7.73179 3.48361C7.73179 4.65937 8.70129 5.61735 9.89104 5.61735C11.0808 5.61735 12.0502 4.65937 12.0502 3.48361ZM21.0132 3.48361C21.0132 5.40831 19.4357 6.96721 17.488 6.96721C15.5403 6.96721 13.9627 5.40831 13.9627 3.48361C13.9627 1.55891 15.5403 0 17.488 0C19.4357 0 21.0133 1.55891 21.0133 3.48361M19.6473 3.48361C19.6473 2.30791 18.6778 1.34992 17.488 1.34992C16.2983 1.34992 15.3288 2.30791 15.3288 3.48361C15.3288 4.65937 16.2983 5.61735 17.488 5.61735C18.6778 5.61735 19.6473 4.65937 19.6473 3.48361Z" fill="#0B5CFF"/>
</g>
<defs>
<clipPath id="clip0_2438_5286">
<rect width="31" height="7" fill="white"/>
</clipPath>
</defs>
</svg>
