<svg width="24" height="24" viewBox="0 0 24 24" fill="none" xmlns="http://www.w3.org/2000/svg">
<path d="M17.3042 21.0153C18.49 19.8328 19.4304 18.4277 20.0713 16.8806C20.7123 15.3335 21.0412 13.675 21.0392 12.0003C21.0412 10.3257 20.7123 8.6672 20.0713 7.1201C19.4304 5.573 18.49 4.16783 17.3042 2.98534L16.2422 4.04584C17.2885 5.08922 18.1182 6.3291 18.6838 7.6942C19.2493 9.0593 19.5395 10.5227 19.5377 12.0003C19.5377 15.1068 18.2777 17.9193 16.2422 19.9548L17.3042 21.0153V21.0153Z" fill="#444444"/>
<path d="M15.1816 18.8937C16.0883 17.9894 16.8074 16.9148 17.2975 15.7317C17.7876 14.5486 18.0392 13.2803 18.0376 11.9997C18.0392 10.7191 17.7876 9.45084 17.2975 8.26774C16.8074 7.08464 16.0883 6.01005 15.1816 5.10573L14.1211 6.16623C14.8883 6.93145 15.4968 7.84073 15.9115 8.84184C16.3262 9.84294 16.539 10.9161 16.5376 11.9997C16.5393 13.0835 16.3269 14.1569 15.9124 15.1583C15.498 16.1596 14.8897 17.0692 14.1226 17.8347L15.1816 18.8937Z" fill="#444444"/>
<path d="M13.0605 16.7728C13.6882 16.1467 14.186 15.4027 14.5253 14.5836C14.8646 13.7645 15.0387 12.8864 15.0375 11.9998C15.0387 11.1132 14.8646 10.2351 14.5253 9.41603C14.186 8.59692 13.6882 7.85293 13.0605 7.22682L12 8.28732C12.4882 8.77433 12.8754 9.35302 13.1393 9.99013C13.4031 10.6272 13.5385 11.3102 13.5375 11.9998C13.5384 12.6894 13.403 13.3724 13.1391 14.0095C12.8753 14.6466 12.4882 15.2253 12 15.7123L13.0605 16.7728Z" fill="#444444"/>
<path fill-rule="evenodd" clip-rule="evenodd" d="M10.0755 5.3249C10.2026 5.38612 10.3098 5.48192 10.3849 5.60132C10.46 5.72071 10.4999 5.85886 10.5 5.9999V17.9999C10.4998 18.141 10.4598 18.2792 10.3846 18.3986C10.3093 18.518 10.2019 18.6138 10.0747 18.6749C9.9475 18.736 9.80562 18.76 9.6654 18.744C9.52517 18.7281 9.39228 18.673 9.282 18.5849L5.7375 15.7499H2.25C2.05109 15.7499 1.86032 15.6709 1.71967 15.5302C1.57902 15.3896 1.5 15.1988 1.5 14.9999V8.9999C1.5 8.80099 1.57902 8.61023 1.71967 8.46957C1.86032 8.32892 2.05109 8.2499 2.25 8.2499H5.7375L9.282 5.4149C9.39236 5.32669 9.52539 5.27143 9.66578 5.25551C9.80616 5.23959 9.94819 5.26364 10.0755 5.3249V5.3249Z" fill="#444444"/>
</svg>
